<?xml version="1.0" standalone="no"?>
<!DOCTYPE svg PUBLIC "-//W3C//DTD SVG 20010904//EN"
 "http://www.w3.org/TR/2001/REC-SVG-20010904/DTD/svg10.dtd">
<svg version="1.0" xmlns="http://www.w3.org/2000/svg"
 width="899.000000pt" height="899.000000pt" viewBox="0 0 899.000000 899.000000"
 preserveAspectRatio="xMidYMid meet">
<metadata>
Created by potrace 1.14, written by Peter Selinger 2001-2017
</metadata>
<g transform="translate(0.000000,899.000000) scale(0.100000,-0.100000)"
fill="#000000" stroke="none">
<path d="M5376 8743 c-3 -3 -34 -6 -70 -6 -48 -1 -62 -5 -59 -14 3 -7 -1 -13
-7 -13 -9 0 -8 -6 3 -18 10 -10 17 -26 17 -35 0 -9 11 -27 25 -41 24 -24 24
-26 6 -35 -10 -6 -20 -8 -23 -6 -2 2 -20 0 -39 -5 -19 -5 -47 -12 -64 -15 -16
-3 -35 -7 -40 -8 -6 -2 -24 -12 -40 -23 -17 -12 -37 -20 -45 -20 -8 1 -26 -9
-40 -22 -19 -19 -20 -23 -7 -19 10 4 16 3 12 -2 -6 -10 11 -24 35 -28 8 -1 19
-8 25 -16 5 -7 18 -16 28 -20 9 -3 17 -11 17 -17 0 -6 -8 -13 -17 -17 -26 -9
-83 -70 -83 -87 0 -9 -17 -44 -39 -79 -21 -35 -42 -73 -45 -85 -4 -12 -25 -53
-47 -90 -22 -37 -38 -74 -36 -83 3 -9 -4 -21 -14 -28 -12 -7 -19 -23 -19 -44
0 -17 -7 -41 -15 -51 -8 -10 -12 -22 -10 -27 3 -4 1 -10 -5 -14 -5 -3 -10 -17
-10 -29 0 -13 -7 -29 -15 -36 -8 -7 -15 -19 -15 -27 0 -8 -5 -11 -10 -8 -7 4
-9 -3 -6 -19 2 -14 -1 -30 -9 -36 -8 -6 -12 -17 -9 -25 3 -7 0 -16 -5 -20 -6
-3 -9 -11 -6 -16 4 -5 2 -9 -4 -9 -6 0 -8 -6 -5 -14 3 -8 1 -17 -4 -20 -6 -3
-8 -15 -5 -27 4 -12 -3 -32 -15 -48 -13 -18 -19 -40 -18 -64 2 -20 -1 -37 -6
-37 -5 0 -7 -4 -3 -9 3 -5 0 -13 -6 -16 -6 -4 -8 -17 -5 -30 4 -16 1 -25 -11
-29 -9 -4 -13 -9 -10 -13 4 -3 2 -15 -4 -26 -9 -15 -8 -18 3 -11 10 6 11 5 2
-7 -6 -8 -10 -26 -9 -41 1 -16 -1 -28 -5 -28 -4 0 -6 -35 -5 -77 2 -50 0 -80
-8 -85 -8 -5 -8 -13 0 -30 6 -13 9 -54 7 -91 -2 -37 -1 -67 3 -67 5 0 9 -27
10 -61 1 -33 6 -66 13 -74 6 -7 13 -23 15 -35 2 -13 10 -30 18 -39 7 -9 14
-27 15 -40 0 -13 10 -33 21 -45 12 -12 21 -25 21 -29 0 -4 8 -15 18 -25 42
-45 55 -66 44 -70 -7 -2 -10 -7 -8 -10 2 -4 -12 -8 -31 -9 -20 -1 -43 -5 -52
-9 -16 -7 -64 -15 -91 -16 -32 -1 -40 3 -40 21 0 26 -42 84 -65 89 -11 2 -35
6 -52 9 -18 3 -33 9 -33 15 0 5 -5 6 -10 3 -6 -4 -7 -12 -3 -18 5 -8 2 -8 -9
0 -8 7 -18 10 -21 6 -4 -3 -7 -1 -7 5 0 7 -5 12 -10 12 -6 0 -23 11 -38 25
-26 24 -112 60 -112 47 0 -4 -4 -1 -8 6 -9 13 -42 6 -42 -9 0 -5 -13 -9 -29
-9 -16 0 -34 -6 -40 -14 -7 -8 -20 -14 -29 -14 -28 2 -93 -23 -87 -33 4 -5 1
-9 -4 -9 -23 0 -27 -2 -48 -22 -12 -11 -24 -31 -27 -44 -4 -14 -11 -22 -16
-19 -6 3 -11 0 -11 -7 -1 -7 -2 -17 -4 -23 -1 -5 -3 -29 -3 -52 -2 -36 -5 -43
-22 -43 -11 0 -20 5 -20 10 0 6 -31 41 -69 79 -39 38 -77 83 -86 100 -8 17
-20 31 -25 31 -5 0 -16 14 -25 30 -9 17 -22 30 -31 30 -8 0 -19 11 -24 24 -5
13 -15 28 -23 33 -7 4 -16 16 -20 26 -3 9 -13 17 -22 17 -8 0 -15 5 -15 11 0
5 6 7 13 3 6 -4 -3 7 -20 24 -18 17 -33 36 -33 41 0 6 -5 10 -12 9 -6 -2 -16
11 -22 27 -6 17 -16 33 -23 38 -6 4 -14 21 -18 37 -4 17 -13 30 -21 30 -8 0
-13 3 -13 8 4 21 -3 34 -26 44 -14 6 -25 19 -25 28 0 10 -11 25 -24 33 -28 19
-46 37 -66 67 -8 12 -30 37 -48 56 -19 19 -30 34 -25 34 4 0 -6 8 -24 16 -29
15 -50 46 -45 67 1 4 -4 7 -11 7 -14 0 -57 41 -57 54 0 15 -42 46 -53 39 -6
-3 -7 -1 -3 5 4 6 -2 20 -14 32 -12 12 -20 15 -20 8 0 -9 -4 -8 -10 2 -5 8
-10 11 -10 5 0 -5 -4 -4 -8 3 -7 10 -14 8 -34 -8 -15 -11 -31 -20 -37 -20 -6
0 -11 -4 -11 -10 0 -5 -7 -6 -17 -3 -11 4 -14 3 -9 -5 5 -8 2 -10 -8 -6 -9 3
-16 1 -16 -5 0 -6 -13 -17 -29 -26 -30 -15 -30 -15 -62 30 -18 25 -38 45 -46
45 -7 0 -13 5 -13 11 0 6 -18 28 -40 49 -22 21 -40 43 -40 49 0 6 -5 11 -12
11 -6 0 -9 3 -5 6 3 3 -10 21 -29 39 -19 18 -34 38 -34 44 0 6 -24 35 -53 65
-81 81 -100 111 -93 149 3 18 8 45 11 61 3 17 10 33 16 37 6 4 8 12 5 18 -4 6
-2 11 4 11 7 0 8 6 2 18 -10 18 -5 45 6 38 4 -2 8 10 9 26 1 17 8 36 14 44 9
11 8 14 -2 14 -9 1 -8 4 4 11 13 8 15 14 7 24 -11 14 -3 48 10 40 5 -3 9 3 9
12 -1 40 13 109 25 128 12 18 18 39 30 113 3 13 7 26 10 29 3 3 1 14 -5 24 -7
13 -6 19 1 19 6 0 9 19 8 47 -3 42 -6 47 -33 55 -31 8 -98 -17 -99 -37 0 -5
-8 -19 -18 -29 -10 -11 -18 -25 -18 -31 0 -6 -18 -27 -41 -46 -49 -40 -74 -67
-74 -77 0 -4 -25 -32 -55 -62 -30 -30 -61 -67 -68 -83 -6 -15 -23 -32 -37 -39
-14 -6 -25 -17 -25 -25 0 -7 -6 -13 -12 -13 -9 0 -8 -4 2 -10 13 -8 12 -10 -3
-10 -10 0 -15 -4 -12 -10 3 -5 0 -10 -8 -10 -13 0 -28 -21 -31 -42 -3 -20
-111 -118 -131 -118 -7 0 -16 -9 -20 -20 -3 -11 -9 -19 -13 -19 -22 4 -32 -3
-32 -21 0 -12 -9 -31 -20 -43 -43 -46 -48 -141 -10 -182 13 -14 28 -25 34 -25
6 0 22 -11 36 -25 14 -13 41 -40 60 -58 51 -51 63 -67 49 -67 -8 0 -6 -7 4
-18 10 -10 17 -26 17 -36 0 -9 4 -14 10 -11 5 3 10 -1 10 -9 0 -9 5 -16 11
-16 6 0 9 -6 6 -12 -2 -7 6 -23 19 -34 12 -12 20 -25 17 -28 -3 -3 2 -8 11
-12 9 -3 13 -10 10 -15 -6 -11 16 -49 47 -80 10 -10 14 -19 8 -19 -7 0 0 -11
15 -25 15 -14 24 -25 21 -25 -9 0 24 -58 38 -67 34 -20 25 -87 -13 -95 -8 -2
-31 -20 -51 -40 -21 -21 -47 -38 -59 -38 -12 0 -19 -3 -17 -7 5 -8 -17 -34
-28 -33 -21 1 -25 -1 -20 -10 3 -5 -1 -10 -11 -10 -21 0 -75 -61 -69 -77 2 -7
-1 -15 -7 -19 -7 -5 -8 -2 -3 6 5 8 4 11 -1 7 -12 -7 -5 -87 8 -87 14 0 42
-30 34 -37 -3 -3 -2 -11 3 -17 5 -6 30 -51 56 -101 26 -49 54 -94 62 -98 7 -5
11 -12 8 -18 -4 -5 1 -9 11 -9 11 0 15 -6 12 -18 -4 -12 8 -31 32 -55 21 -20
35 -38 32 -41 -3 -4 0 -6 6 -6 7 0 12 -6 12 -13 0 -7 9 -23 20 -35 11 -12 20
-26 20 -32 0 -5 5 -10 10 -10 6 0 10 -7 10 -15 0 -8 5 -15 10 -15 13 0 50 -61
44 -72 -3 -5 0 -7 8 -6 7 2 14 -8 16 -21 2 -13 17 -35 33 -48 16 -14 27 -29
24 -33 -3 -5 5 -17 18 -27 13 -10 26 -26 30 -35 3 -10 13 -18 22 -18 8 0 15
-4 15 -9 0 -15 63 -103 106 -147 21 -23 50 -59 64 -79 14 -21 39 -52 55 -70
48 -51 95 -113 95 -125 0 -6 4 -8 10 -5 5 3 10 1 10 -6 0 -7 3 -9 6 -6 7 7 37
-28 47 -56 4 -10 12 -15 18 -12 6 4 13 -2 16 -14 3 -11 9 -18 14 -15 5 3 12
-3 16 -13 3 -10 26 -38 50 -61 23 -24 43 -49 43 -54 0 -6 7 -8 15 -4 8 3 14 2
13 -2 -5 -15 61 -102 77 -102 10 0 40 -34 54 -62 8 -15 18 -25 23 -22 4 3 8 1
8 -5 0 -5 9 -13 20 -16 11 -3 20 -12 20 -19 0 -7 12 -18 26 -24 14 -7 23 -16
20 -21 -7 -11 131 -151 148 -151 7 0 24 -14 37 -32 13 -18 41 -49 62 -70 20
-20 37 -42 37 -48 0 -5 5 -10 11 -10 13 0 119 -107 119 -121 0 -6 4 -8 9 -4 5
3 13 -4 16 -16 6 -17 9 -19 16 -8 7 11 9 10 9 -4 0 -11 9 -21 19 -24 11 -3 25
-18 31 -33 7 -16 29 -41 51 -56 21 -15 39 -33 39 -40 0 -8 4 -14 9 -14 4 0 41
-31 82 -70 40 -38 77 -70 81 -70 3 0 10 -9 13 -20 4 -11 11 -17 17 -14 6 4 9
1 6 -7 -3 -8 -12 -13 -21 -13 -9 1 -14 -2 -11 -7 3 -5 -7 -9 -23 -10 -77 -2
-89 -8 -74 -36 11 -20 24 -54 25 -66 1 -4 6 -11 11 -15 6 -4 16 -19 24 -34 8
-15 21 -36 30 -46 9 -10 17 -24 19 -32 2 -8 8 -17 13 -18 5 -2 7 -8 3 -13 -3
-5 0 -9 6 -9 6 0 15 -11 20 -25 6 -16 16 -24 27 -22 25 4 103 49 103 59 0 4
10 8 23 8 12 0 28 9 35 21 10 16 16 18 27 9 10 -8 17 -6 29 12 10 14 16 17 16
8 0 -11 3 -11 12 -2 14 14 32 16 24 4 -7 -12 58 -74 68 -65 4 4 9 -2 12 -14 3
-12 18 -27 34 -33 15 -6 37 -25 49 -41 12 -16 26 -27 32 -24 5 4 9 1 9 -6 0
-6 10 -20 22 -30 24 -21 32 -24 23 -8 -4 6 2 5 13 -2 12 -7 18 -17 16 -21 -3
-4 0 -8 5 -8 6 0 10 -3 9 -8 -1 -4 2 -19 6 -33 9 -33 14 -59 15 -82 1 -10 5
-16 10 -13 4 3 7 -6 5 -19 -1 -14 2 -25 7 -25 5 0 8 -19 6 -42 -1 -27 2 -42 9
-41 7 1 9 -8 6 -23 -3 -16 1 -29 12 -37 13 -10 14 -18 7 -45 -8 -27 -7 -33 3
-29 9 4 13 -4 14 -26 0 -40 13 -91 37 -141 10 -21 19 -57 19 -81 1 -24 4 -47
9 -51 4 -4 7 -16 7 -26 0 -10 5 -18 11 -18 6 0 9 -7 5 -15 -3 -8 0 -15 7 -15
8 0 6 -4 -3 -10 -13 -8 -12 -10 3 -10 9 0 17 -4 17 -10 0 -5 -5 -10 -10 -10
-6 0 -5 -8 2 -19 7 -11 16 -18 20 -15 4 3 5 -1 2 -9 -3 -8 2 -34 11 -58 9 -24
18 -52 20 -62 2 -9 7 -23 12 -30 4 -6 6 -20 4 -31 -5 -30 9 -86 21 -83 12 2
20 -25 19 -66 -1 -15 5 -35 14 -43 8 -9 15 -24 15 -34 0 -10 5 -22 10 -25 6
-3 10 -18 10 -33 0 -15 6 -39 14 -53 7 -14 16 -41 20 -60 3 -19 13 -47 21 -62
8 -15 10 -25 5 -22 -16 10 -12 0 10 -25 17 -20 25 -47 21 -72 0 -5 3 -8 7 -8
15 0 54 -156 56 -225 1 -16 5 -36 10 -44 5 -8 9 -27 8 -42 0 -16 3 -31 8 -34
5 -3 7 -12 3 -20 -3 -8 0 -15 7 -15 9 0 9 -4 -1 -17 -10 -11 -10 -14 -1 -9 11
7 17 -5 13 -27 -1 -4 6 -10 14 -13 10 -4 15 -19 15 -44 0 -21 6 -56 14 -78 8
-22 12 -42 9 -45 -2 -3 3 -17 12 -31 9 -14 14 -30 10 -36 -4 -6 -1 -17 5 -25
6 -8 9 -19 5 -25 -3 -5 -1 -10 5 -10 6 0 10 -8 8 -18 -2 -11 4 -27 12 -37 8
-10 16 -30 17 -44 5 -69 11 -94 24 -102 8 -5 10 -9 5 -9 -5 0 -2 -8 5 -17 12
-14 12 -15 1 -9 -12 7 -12 4 -2 -14 6 -12 9 -24 6 -27 -3 -3 6 -27 20 -54 13
-27 20 -49 14 -49 -5 0 -10 -5 -10 -11 0 -5 5 -7 10 -4 6 3 10 -1 10 -9 0 -9
5 -16 10 -16 6 0 10 -4 10 -9 0 -17 54 -68 78 -74 12 -3 22 -1 22 4 0 6 7 6
18 1 9 -5 27 -8 40 -6 17 3 21 0 16 -8 -6 -10 -5 -10 8 -1 15 13 86 11 107 -2
6 -3 11 -2 11 3 0 10 75 10 86 0 3 -4 18 -2 33 4 33 13 81 17 75 6 -3 -5 8 -7
25 -6 17 1 31 5 31 8 0 11 69 -2 80 -15 6 -7 13 -30 15 -51 2 -21 9 -43 17
-48 8 -6 15 -27 16 -46 2 -19 6 -37 10 -40 9 -6 8 -38 -1 -60 -4 -8 -5 -28 -4
-45 2 -16 0 -42 -4 -57 -6 -22 -4 -26 9 -20 14 5 15 3 4 -10 -10 -12 -10 -17
1 -27 8 -6 18 -7 22 -3 5 4 5 2 2 -4 -10 -17 40 -63 64 -59 12 2 31 -1 43 -8
24 -13 67 -17 60 -5 -3 4 11 8 31 8 26 0 34 -3 29 -12 -6 -10 -4 -10 8 0 10 8
19 9 22 3 4 -5 16 -7 29 -5 12 3 40 7 63 9 22 2 54 7 70 11 16 3 39 7 51 8 11
0 19 4 16 9 -2 4 9 7 26 7 16 0 32 -4 35 -9 4 -5 27 -8 54 -6 26 1 52 -1 57
-5 15 -11 55 -19 55 -12 0 4 11 8 25 8 14 1 25 -1 25 -5 0 -4 14 -8 31 -9 20
-2 28 1 24 9 -5 8 -2 8 11 2 11 -5 80 -9 154 -8 134 0 134 0 149 26 8 14 11
32 7 40 -29 57 -54 86 -82 91 -10 2 -25 10 -32 18 -12 13 -13 13 -6 0 4 -9 -2
-7 -17 6 -13 11 -36 25 -51 32 -16 6 -28 16 -28 22 0 5 -11 10 -24 10 -13 0
-29 7 -36 15 -20 24 -69 45 -76 33 -5 -7 -2 -8 6 -3 9 5 11 4 6 -4 -9 -14 -26
-5 -26 15 0 8 -8 14 -17 14 -9 0 -24 7 -34 16 -9 8 -26 16 -38 17 -11 1 -21 4
-21 7 0 8 -62 44 -80 47 -8 1 -20 10 -27 19 -7 10 -13 14 -13 10 0 -5 -8 -2
-17 5 -15 12 -16 12 -8 -1 7 -12 6 -13 -7 -3 -8 7 -19 9 -23 5 -5 -4 -5 -1 -1
6 4 6 2 12 -4 12 -6 0 -8 5 -5 10 4 6 1 9 -5 8 -7 -2 -17 5 -23 15 -16 23 3
53 32 50 12 -2 20 0 18 5 -3 4 19 7 48 8 32 0 64 7 79 18 26 16 26 20 21 89
-2 39 -9 73 -15 75 -6 2 -6 10 1 24 6 11 7 27 3 36 -4 9 -9 28 -10 42 -9 84
-15 120 -28 165 -10 32 -12 51 -5 56 6 3 4 11 -5 19 -9 7 -14 16 -11 20 3 5 1
11 -5 15 -6 4 -7 12 0 24 6 12 5 22 -2 29 -7 7 -8 12 -3 12 6 0 3 5 -5 10 -12
8 -12 10 -1 10 11 0 11 3 1 15 -7 8 -10 25 -6 38 3 14 -1 32 -9 43 -8 11 -15
41 -15 70 0 33 -5 56 -15 64 -10 8 -12 17 -5 29 13 25 8 59 -8 66 -9 3 -12 13
-8 29 3 14 2 28 -4 31 -6 3 -8 17 -6 31 3 13 0 24 -5 24 -6 0 -9 12 -8 28 2
15 -2 36 -8 47 -6 11 -9 29 -7 39 1 11 0 25 -4 30 -4 6 -7 24 -8 40 -1 15 -7
32 -15 37 -12 7 -11 9 1 9 12 0 13 2 1 9 -7 5 -15 28 -17 52 -2 24 -11 62 -20
84 -9 22 -15 41 -15 43 6 15 -1 42 -10 36 -8 -4 -8 0 0 15 11 19 8 25 -11 22
-4 0 -4 9 1 21 5 14 3 31 -6 47 -7 14 -13 41 -13 59 0 17 -4 32 -9 32 -6 0 -8
9 -6 21 2 12 -2 28 -11 36 -10 11 -12 19 -4 28 7 9 6 16 -5 25 -23 19 -18 28
20 44 33 14 35 17 33 63 -1 26 -5 53 -9 58 -4 6 -9 24 -12 40 -3 17 -15 66
-27 110 -12 44 -23 89 -26 100 -2 11 -9 22 -14 23 -7 3 -6 10 2 20 10 12 10
14 1 8 -8 -4 -13 -1 -13 8 0 27 -1 31 -15 46 -8 8 -16 35 -19 58 -3 24 -10 50
-17 58 -9 11 -8 14 2 14 9 0 10 3 3 8 -12 8 -27 54 -29 90 0 13 -6 26 -11 30
-12 8 -13 13 -17 95 -1 31 2 57 6 57 5 0 5 5 2 10 -3 6 -1 10 4 10 6 0 10 3 9
8 -3 16 16 68 31 80 11 9 11 11 2 6 -9 -4 -4 7 9 26 13 18 18 30 10 25 -15 -9
-7 8 16 35 7 9 14 30 16 48 1 17 9 34 16 37 9 3 12 13 9 25 -3 11 -1 20 4 20
5 0 9 7 9 16 0 8 3 13 8 11 9 -6 33 19 25 27 -4 3 1 6 10 6 9 0 17 -5 17 -10
0 -6 6 -10 13 -9 12 2 35 -5 72 -22 11 -5 49 -11 85 -13 36 -2 78 -9 93 -15
35 -14 47 -14 27 -1 -11 8 -9 9 13 8 15 -1 27 -7 27 -13 0 -5 4 -4 9 4 6 8 20
12 39 9 17 -2 29 -1 26 4 -3 4 6 8 21 8 26 0 64 17 77 35 4 6 8 7 8 2 0 -4 23
4 50 18 28 14 50 23 50 20 0 -3 10 3 22 14 11 11 26 18 31 14 6 -3 8 -2 5 3
-3 5 0 15 8 22 8 7 14 10 14 6 0 -4 12 5 26 19 15 15 30 24 35 21 5 -3 9 2 9
10 0 17 34 39 44 28 4 -3 4 1 1 10 -4 9 -1 19 6 24 8 5 10 3 4 -7 -5 -8 14 9
41 36 27 28 48 53 46 58 -2 4 2 7 8 7 6 0 8 5 5 10 -3 6 -1 10 5 10 6 0 9 4 5
9 -3 6 1 13 9 18 8 4 16 15 18 23 2 8 9 21 16 28 6 7 12 20 12 29 0 8 9 27 20
43 11 15 17 30 14 33 -3 3 -1 21 5 39 5 18 13 85 16 149 4 64 8 124 9 135 2
10 -1 25 -7 32 -6 8 -6 16 1 25 10 13 2 95 -16 154 -6 17 -8 34 -5 37 3 3 -1
16 -10 29 -10 16 -14 38 -11 62 2 21 0 41 -5 44 -6 4 -13 21 -16 40 -3 18 -12
43 -20 55 -8 12 -12 26 -8 30 5 4 1 6 -7 4 -8 -2 -15 4 -16 12 0 8 -5 25 -9
37 -4 12 -6 25 -5 29 1 3 -7 12 -17 21 -11 9 -12 12 -3 8 8 -4 6 1 -4 9 -11 9
-17 19 -13 22 3 3 2 11 -4 18 -21 25 -58 86 -52 86 3 0 -2 9 -12 20 -10 11
-14 20 -10 20 5 0 -11 18 -33 41 -23 22 -42 44 -42 49 0 4 -7 13 -15 20 -8 7
-13 15 -11 19 4 7 -19 31 -31 32 -23 4 -31 13 -28 30 2 11 0 17 -5 14 -5 -3
-14 4 -20 16 -7 11 -14 18 -17 16 -3 -3 -16 4 -29 16 -14 12 -34 30 -45 40
-11 10 -17 23 -13 29 5 7 3 8 -6 3 -7 -4 -15 -3 -19 2 -13 21 -103 93 -110 89
-3 -3 -17 9 -30 25 -13 16 -31 29 -41 29 -17 0 -99 54 -111 73 -4 5 -11 7 -17
3 -5 -3 -13 1 -16 10 -3 8 -11 14 -18 13 -16 -3 -84 26 -92 39 -3 6 -15 8 -25
5 -10 -3 -28 3 -39 13 -12 10 -38 19 -58 21 -20 1 -43 8 -51 14 -10 9 -17 9
-24 2 -7 -7 -20 -7 -40 0 -34 13 -36 21 -10 44 11 9 18 20 15 25 -3 5 -2 8 3
7 19 -3 33 2 33 12 0 5 -5 7 -12 3 -7 -4 -8 -3 -4 5 4 6 11 9 15 6 11 -6 43
30 34 38 -3 4 1 7 10 7 10 0 16 6 15 13 -2 6 2 11 9 10 7 -2 10 3 7 11 -3 7 2
16 10 19 10 4 14 17 12 42 -2 19 1 38 6 41 10 6 58 -14 68 -28 9 -12 93 -18
131 -9 34 8 66 28 98 64 8 9 21 17 29 17 7 0 12 6 11 13 -3 24 1 38 10 33 18
-12 46 97 42 169 0 11 -1 31 -1 44 0 13 -8 33 -17 44 -13 15 -14 18 -3 12 11
-6 10 -3 -2 12 -10 11 -18 22 -18 26 0 13 -51 57 -66 57 -8 0 -12 4 -9 10 3 6
-1 7 -9 4 -9 -3 -16 -1 -16 4 0 6 -9 9 -21 7 -17 -3 -19 -1 -13 18 4 12 8 31
9 41 1 11 6 21 12 23 6 2 9 13 6 23 -3 11 0 20 6 20 5 0 8 6 5 14 -3 8 0 17 5
21 6 3 9 11 6 16 -4 5 -3 14 1 21 4 7 9 23 10 36 2 13 8 29 13 36 6 7 8 27 5
43 -4 21 -2 32 8 35 10 4 13 20 12 52 -1 25 2 44 6 41 10 -6 19 27 16 65 -1
16 1 30 6 30 4 0 8 -5 8 -12 0 -6 3 -8 6 -5 4 4 1 13 -5 21 -9 10 -9 16 -1 21
8 5 8 11 -1 21 -9 11 -9 14 0 14 7 0 9 4 6 10 -3 5 -1 18 4 29 7 12 7 21 1 23
-14 5 -19 50 -8 72 7 13 6 32 -3 60 -7 23 -13 52 -14 64 -1 13 -8 27 -14 32
-7 4 -12 13 -11 21 5 31 -1 49 -14 49 -17 0 -28 37 -12 44 7 3 7 5 -1 5 -7 1
-13 13 -13 27 0 16 -4 23 -11 18 -7 -4 -10 -1 -7 7 3 8 -6 24 -19 37 -14 13
-22 29 -19 37 3 10 -1 15 -11 15 -9 0 -14 3 -10 6 6 6 -6 25 -31 47 -36 32
-71 71 -67 75 2 3 -17 20 -42 38 -26 18 -58 47 -71 64 -13 16 -30 30 -38 30
-8 0 -14 5 -14 10 0 6 -8 10 -18 10 -10 0 -24 9 -32 20 -8 11 -29 25 -47 31
-18 6 -33 15 -33 21 0 6 -9 8 -20 5 -21 -5 -44 15 -32 28 4 5 -1 5 -10 2 -10
-4 -18 -2 -18 3 0 9 -20 17 -62 25 -12 3 -24 9 -26 13 -1 5 -14 7 -28 4 -14
-3 -32 2 -42 12 -10 8 -28 17 -40 19 -12 2 -25 6 -28 10 -4 4 -15 7 -25 7 -9
0 -19 5 -21 11 -2 5 -15 12 -28 14 -41 6 -54 10 -70 20 -22 14 -39 15 -46 3
-4 -7 -9 -6 -14 2 -4 7 -19 13 -33 13 -14 1 -23 5 -20 10 4 6 -36 12 -64 8 -7
-1 -13 3 -13 10 0 9 -3 9 -14 0 -10 -8 -16 -9 -21 -1 -3 6 -11 8 -16 5 -5 -4
-9 -1 -9 5 0 7 -19 9 -55 6 -30 -2 -55 -1 -55 4 0 10 -26 20 -34 13z m1034
-8487 c0 -3 -4 -8 -10 -11 -5 -3 -10 -1 -10 4 0 6 5 11 10 11 6 0 10 -2 10 -4z"/>
</g>
</svg>
